<mxfile host="app.diagrams.net" modified="2024-01-29T21:04:24.402Z" agent="Mozilla/5.0 (Windows NT 10.0; Win64; x64) AppleWebKit/537.36 (KHTML, like Gecko) Chrome/120.0.0.0 Safari/537.36" etag="VE5BRw8EOU1ZOMcMaq2g" version="23.0.2" type="device">
  <diagram id="C5RBs43oDa-KdzZeNtuy" name="Page-1">
    <mxGraphModel dx="1235" dy="614" grid="1" gridSize="10" guides="1" tooltips="1" connect="1" arrows="1" fold="1" page="1" pageScale="1" pageWidth="1700" pageHeight="800" math="0" shadow="0">
      <root>
        <mxCell id="WIyWlLk6GJQsqaUBKTNV-0" />
        <mxCell id="WIyWlLk6GJQsqaUBKTNV-1" parent="WIyWlLk6GJQsqaUBKTNV-0" />
        <mxCell id="22lcPCfBFil6golWI1VR-0" value="Parallax Background" style="swimlane;whiteSpace=wrap;html=1;fillColor=#e1d5e7;strokeColor=#9673a6;shadow=0;rounded=1;" parent="WIyWlLk6GJQsqaUBKTNV-1" vertex="1">
          <mxGeometry x="30" width="280" height="200" as="geometry" />
        </mxCell>
        <mxCell id="zkfFHV4jXpPFQw0GAbJ--0" value="Parallax" style="swimlane;fontStyle=2;align=center;verticalAlign=top;childLayout=stackLayout;horizontal=1;startSize=26;horizontalStack=0;resizeParent=1;resizeLast=0;collapsible=1;marginBottom=0;rounded=0;shadow=0;strokeWidth=1;" parent="22lcPCfBFil6golWI1VR-0" vertex="1">
          <mxGeometry x="40" y="40" width="200" height="138" as="geometry">
            <mxRectangle x="230" y="140" width="160" height="26" as="alternateBounds" />
          </mxGeometry>
        </mxCell>
        <mxCell id="zkfFHV4jXpPFQw0GAbJ--1" value="- _scrollSpeed : float" style="text;align=left;verticalAlign=top;spacingLeft=4;spacingRight=4;overflow=hidden;rotatable=0;points=[[0,0.5],[1,0.5]];portConstraint=eastwest;" parent="zkfFHV4jXpPFQw0GAbJ--0" vertex="1">
          <mxGeometry y="26" width="200" height="26" as="geometry" />
        </mxCell>
        <mxCell id="zkfFHV4jXpPFQw0GAbJ--2" value="- _startPos : Vector3" style="text;align=left;verticalAlign=top;spacingLeft=4;spacingRight=4;overflow=hidden;rotatable=0;points=[[0,0.5],[1,0.5]];portConstraint=eastwest;rounded=0;shadow=0;html=0;" parent="zkfFHV4jXpPFQw0GAbJ--0" vertex="1">
          <mxGeometry y="52" width="200" height="26" as="geometry" />
        </mxCell>
        <mxCell id="zkfFHV4jXpPFQw0GAbJ--3" value="- _spriteRenderer : Spriterenderer" style="text;align=left;verticalAlign=top;spacingLeft=4;spacingRight=4;overflow=hidden;rotatable=0;points=[[0,0.5],[1,0.5]];portConstraint=eastwest;rounded=0;shadow=0;html=0;" parent="zkfFHV4jXpPFQw0GAbJ--0" vertex="1">
          <mxGeometry y="78" width="200" height="26" as="geometry" />
        </mxCell>
        <mxCell id="zkfFHV4jXpPFQw0GAbJ--4" value="" style="line;html=1;strokeWidth=1;align=left;verticalAlign=middle;spacingTop=-1;spacingLeft=3;spacingRight=3;rotatable=0;labelPosition=right;points=[];portConstraint=eastwest;" parent="zkfFHV4jXpPFQw0GAbJ--0" vertex="1">
          <mxGeometry y="104" width="200" height="8" as="geometry" />
        </mxCell>
        <mxCell id="zkfFHV4jXpPFQw0GAbJ--5" value="- FixedUpdate() : void" style="text;align=left;verticalAlign=top;spacingLeft=4;spacingRight=4;overflow=hidden;rotatable=0;points=[[0,0.5],[1,0.5]];portConstraint=eastwest;" parent="zkfFHV4jXpPFQw0GAbJ--0" vertex="1">
          <mxGeometry y="112" width="200" height="26" as="geometry" />
        </mxCell>
        <mxCell id="22lcPCfBFil6golWI1VR-4" style="edgeStyle=orthogonalEdgeStyle;rounded=0;orthogonalLoop=1;jettySize=auto;html=1;exitX=0;exitY=0;exitDx=130;exitDy=10;exitPerimeter=0;fillColor=#e3c800;strokeColor=#B09500;" parent="WIyWlLk6GJQsqaUBKTNV-1" source="22lcPCfBFil6golWI1VR-3" target="zkfFHV4jXpPFQw0GAbJ--5" edge="1">
          <mxGeometry relative="1" as="geometry" />
        </mxCell>
        <mxCell id="22lcPCfBFil6golWI1VR-3" value="Fait défiler le décor et le replace à sa position de départ lorsqu&#39;il a complétement&amp;nbsp;défillé" style="shape=note;whiteSpace=wrap;html=1;backgroundOutline=1;fontColor=#000000;darkOpacity=0.05;fillColor=#FFF9B2;strokeColor=none;fillStyle=solid;direction=west;gradientDirection=north;gradientColor=#FFF2A1;shadow=1;size=18;pointerEvents=1;" parent="WIyWlLk6GJQsqaUBKTNV-1" vertex="1">
          <mxGeometry x="30" y="200" width="140" height="160" as="geometry" />
        </mxCell>
        <mxCell id="22lcPCfBFil6golWI1VR-6" value="Player" style="swimlane;whiteSpace=wrap;html=1;fillColor=#ffe6cc;strokeColor=#d79b00;rounded=1;glass=0;shadow=0;" parent="WIyWlLk6GJQsqaUBKTNV-1" vertex="1">
          <mxGeometry x="610" width="510" height="540" as="geometry" />
        </mxCell>
        <mxCell id="22lcPCfBFil6golWI1VR-7" value="PlayerMovements" style="swimlane;fontStyle=2;align=center;verticalAlign=top;childLayout=stackLayout;horizontal=1;startSize=26;horizontalStack=0;resizeParent=1;resizeLast=0;collapsible=1;marginBottom=0;rounded=0;shadow=0;strokeWidth=1;" parent="22lcPCfBFil6golWI1VR-6" vertex="1">
          <mxGeometry x="30" y="240" width="200" height="170" as="geometry">
            <mxRectangle x="40" y="69" width="160" height="26" as="alternateBounds" />
          </mxGeometry>
        </mxCell>
        <mxCell id="22lcPCfBFil6golWI1VR-8" value="- _impulse : float" style="text;align=left;verticalAlign=top;spacingLeft=4;spacingRight=4;overflow=hidden;rotatable=0;points=[[0,0.5],[1,0.5]];portConstraint=eastwest;" parent="22lcPCfBFil6golWI1VR-7" vertex="1">
          <mxGeometry y="26" width="200" height="26" as="geometry" />
        </mxCell>
        <mxCell id="22lcPCfBFil6golWI1VR-9" value="- _rb : Rigidbody" style="text;align=left;verticalAlign=top;spacingLeft=4;spacingRight=4;overflow=hidden;rotatable=0;points=[[0,0.5],[1,0.5]];portConstraint=eastwest;rounded=0;shadow=0;html=0;" parent="22lcPCfBFil6golWI1VR-7" vertex="1">
          <mxGeometry y="52" width="200" height="26" as="geometry" />
        </mxCell>
        <mxCell id="22lcPCfBFil6golWI1VR-37" value="+ FallRotation : Coroutine" style="text;align=left;verticalAlign=top;spacingLeft=4;spacingRight=4;overflow=hidden;rotatable=0;points=[[0,0.5],[1,0.5]];portConstraint=eastwest;" parent="22lcPCfBFil6golWI1VR-7" vertex="1">
          <mxGeometry y="78" width="200" height="26" as="geometry" />
        </mxCell>
        <mxCell id="22lcPCfBFil6golWI1VR-11" value="" style="line;html=1;strokeWidth=1;align=left;verticalAlign=middle;spacingTop=-1;spacingLeft=3;spacingRight=3;rotatable=0;labelPosition=right;points=[];portConstraint=eastwest;" parent="22lcPCfBFil6golWI1VR-7" vertex="1">
          <mxGeometry y="104" width="200" height="12" as="geometry" />
        </mxCell>
        <mxCell id="22lcPCfBFil6golWI1VR-12" value="+ Fly() : void" style="text;align=left;verticalAlign=top;spacingLeft=4;spacingRight=4;overflow=hidden;rotatable=0;points=[[0,0.5],[1,0.5]];portConstraint=eastwest;" parent="22lcPCfBFil6golWI1VR-7" vertex="1">
          <mxGeometry y="116" width="200" height="26" as="geometry" />
        </mxCell>
        <mxCell id="22lcPCfBFil6golWI1VR-38" value="- _rotateDuringFall() : IEnumerator" style="text;align=left;verticalAlign=top;spacingLeft=4;spacingRight=4;overflow=hidden;rotatable=0;points=[[0,0.5],[1,0.5]];portConstraint=eastwest;" parent="22lcPCfBFil6golWI1VR-7" vertex="1">
          <mxGeometry y="142" width="200" height="26" as="geometry" />
        </mxCell>
        <mxCell id="Qvfb32T_ngSN5uWjexYS-70" style="edgeStyle=orthogonalEdgeStyle;rounded=0;orthogonalLoop=1;jettySize=auto;html=1;exitX=0.25;exitY=0;exitDx=0;exitDy=0;entryX=1;entryY=0.5;entryDx=0;entryDy=0;endArrow=none;endFill=0;" parent="22lcPCfBFil6golWI1VR-6" source="22lcPCfBFil6golWI1VR-13" target="22lcPCfBFil6golWI1VR-12" edge="1">
          <mxGeometry relative="1" as="geometry" />
        </mxCell>
        <mxCell id="22lcPCfBFil6golWI1VR-13" value="PlayerInputs" style="swimlane;fontStyle=2;align=center;verticalAlign=top;childLayout=stackLayout;horizontal=1;startSize=26;horizontalStack=0;resizeParent=1;resizeLast=0;collapsible=1;marginBottom=0;rounded=0;shadow=0;strokeWidth=1;" parent="22lcPCfBFil6golWI1VR-6" vertex="1">
          <mxGeometry x="270" y="430" width="200" height="90" as="geometry">
            <mxRectangle x="40" y="69" width="160" height="26" as="alternateBounds" />
          </mxGeometry>
        </mxCell>
        <mxCell id="22lcPCfBFil6golWI1VR-14" value="- _playerInput : PlayerInput" style="text;align=left;verticalAlign=top;spacingLeft=4;spacingRight=4;overflow=hidden;rotatable=0;points=[[0,0.5],[1,0.5]];portConstraint=eastwest;" parent="22lcPCfBFil6golWI1VR-13" vertex="1">
          <mxGeometry y="26" width="200" height="26" as="geometry" />
        </mxCell>
        <mxCell id="22lcPCfBFil6golWI1VR-17" value="" style="line;html=1;strokeWidth=1;align=left;verticalAlign=middle;spacingTop=-1;spacingLeft=3;spacingRight=3;rotatable=0;labelPosition=right;points=[];portConstraint=eastwest;" parent="22lcPCfBFil6golWI1VR-13" vertex="1">
          <mxGeometry y="52" width="200" height="8" as="geometry" />
        </mxCell>
        <mxCell id="22lcPCfBFil6golWI1VR-18" value="- OnAction() : void" style="text;align=left;verticalAlign=top;spacingLeft=4;spacingRight=4;overflow=hidden;rotatable=0;points=[[0,0.5],[1,0.5]];portConstraint=eastwest;" parent="22lcPCfBFil6golWI1VR-13" vertex="1">
          <mxGeometry y="60" width="200" height="26" as="geometry" />
        </mxCell>
        <mxCell id="22lcPCfBFil6golWI1VR-23" value="GameManager" style="swimlane;fontStyle=2;align=center;verticalAlign=top;childLayout=stackLayout;horizontal=1;startSize=26;horizontalStack=0;resizeParent=1;resizeLast=0;collapsible=1;marginBottom=0;rounded=0;shadow=0;strokeWidth=1;" parent="22lcPCfBFil6golWI1VR-6" vertex="1">
          <mxGeometry x="290" y="40" width="200" height="190" as="geometry">
            <mxRectangle x="40" y="69" width="160" height="26" as="alternateBounds" />
          </mxGeometry>
        </mxCell>
        <mxCell id="22lcPCfBFil6golWI1VR-24" value="+ GameIsOver : bool" style="text;align=left;verticalAlign=top;spacingLeft=4;spacingRight=4;overflow=hidden;rotatable=0;points=[[0,0.5],[1,0.5]];portConstraint=eastwest;" parent="22lcPCfBFil6golWI1VR-23" vertex="1">
          <mxGeometry y="26" width="200" height="26" as="geometry" />
        </mxCell>
        <mxCell id="22lcPCfBFil6golWI1VR-28" value="+ GameIsPaused : bool" style="text;align=left;verticalAlign=top;spacingLeft=4;spacingRight=4;overflow=hidden;rotatable=0;points=[[0,0.5],[1,0.5]];portConstraint=eastwest;" parent="22lcPCfBFil6golWI1VR-23" vertex="1">
          <mxGeometry y="52" width="200" height="26" as="geometry" />
        </mxCell>
        <mxCell id="Qvfb32T_ngSN5uWjexYS-47" value="- _pauseSreen : GameObject" style="text;align=left;verticalAlign=top;spacingLeft=4;spacingRight=4;overflow=hidden;rotatable=0;points=[[0,0.5],[1,0.5]];portConstraint=eastwest;" parent="22lcPCfBFil6golWI1VR-23" vertex="1">
          <mxGeometry y="78" width="200" height="26" as="geometry" />
        </mxCell>
        <mxCell id="Qvfb32T_ngSN5uWjexYS-48" value="- _endSreen : GameObject" style="text;align=left;verticalAlign=top;spacingLeft=4;spacingRight=4;overflow=hidden;rotatable=0;points=[[0,0.5],[1,0.5]];portConstraint=eastwest;" parent="22lcPCfBFil6golWI1VR-23" vertex="1">
          <mxGeometry y="104" width="200" height="26" as="geometry" />
        </mxCell>
        <mxCell id="22lcPCfBFil6golWI1VR-25" value="" style="line;html=1;strokeWidth=1;align=left;verticalAlign=middle;spacingTop=-1;spacingLeft=3;spacingRight=3;rotatable=0;labelPosition=right;points=[];portConstraint=eastwest;" parent="22lcPCfBFil6golWI1VR-23" vertex="1">
          <mxGeometry y="130" width="200" height="8" as="geometry" />
        </mxCell>
        <mxCell id="22lcPCfBFil6golWI1VR-26" value="+ GameOver() : void" style="text;align=left;verticalAlign=top;spacingLeft=4;spacingRight=4;overflow=hidden;rotatable=0;points=[[0,0.5],[1,0.5]];portConstraint=eastwest;" parent="22lcPCfBFil6golWI1VR-23" vertex="1">
          <mxGeometry y="138" width="200" height="26" as="geometry" />
        </mxCell>
        <mxCell id="22lcPCfBFil6golWI1VR-27" value="+ GamePause() : void" style="text;align=left;verticalAlign=top;spacingLeft=4;spacingRight=4;overflow=hidden;rotatable=0;points=[[0,0.5],[1,0.5]];portConstraint=eastwest;" parent="22lcPCfBFil6golWI1VR-23" vertex="1">
          <mxGeometry y="164" width="200" height="26" as="geometry" />
        </mxCell>
        <mxCell id="Qvfb32T_ngSN5uWjexYS-71" style="edgeStyle=orthogonalEdgeStyle;rounded=0;orthogonalLoop=1;jettySize=auto;html=1;exitX=0.5;exitY=0;exitDx=0;exitDy=0;endArrow=none;endFill=0;" parent="22lcPCfBFil6golWI1VR-6" source="22lcPCfBFil6golWI1VR-13" target="22lcPCfBFil6golWI1VR-27" edge="1">
          <mxGeometry relative="1" as="geometry">
            <Array as="points">
              <mxPoint x="370" y="260" />
              <mxPoint x="390" y="260" />
            </Array>
            <mxPoint x="373" y="260.0039999999999" as="targetPoint" />
          </mxGeometry>
        </mxCell>
        <mxCell id="Qvfb32T_ngSN5uWjexYS-63" value="Player" style="swimlane;fontStyle=2;align=center;verticalAlign=top;childLayout=stackLayout;horizontal=1;startSize=26;horizontalStack=0;resizeParent=1;resizeLast=0;collapsible=1;marginBottom=0;rounded=0;shadow=0;strokeWidth=1;" parent="22lcPCfBFil6golWI1VR-6" vertex="1">
          <mxGeometry x="30" y="450" width="200" height="60" as="geometry">
            <mxRectangle x="40" y="69" width="160" height="26" as="alternateBounds" />
          </mxGeometry>
        </mxCell>
        <mxCell id="Qvfb32T_ngSN5uWjexYS-66" value="- OnTriggerEnter() : void" style="text;align=left;verticalAlign=top;spacingLeft=4;spacingRight=4;overflow=hidden;rotatable=0;points=[[0,0.5],[1,0.5]];portConstraint=eastwest;" parent="Qvfb32T_ngSN5uWjexYS-63" vertex="1">
          <mxGeometry y="26" width="200" height="26" as="geometry" />
        </mxCell>
        <mxCell id="Qvfb32T_ngSN5uWjexYS-72" style="edgeStyle=orthogonalEdgeStyle;rounded=0;orthogonalLoop=1;jettySize=auto;html=1;exitX=1;exitY=0;exitDx=0;exitDy=0;entryX=0;entryY=0.5;entryDx=0;entryDy=0;endArrow=none;endFill=0;" parent="22lcPCfBFil6golWI1VR-6" source="Qvfb32T_ngSN5uWjexYS-63" target="22lcPCfBFil6golWI1VR-27" edge="1">
          <mxGeometry relative="1" as="geometry">
            <Array as="points">
              <mxPoint x="260" y="450" />
              <mxPoint x="260" y="217" />
            </Array>
            <mxPoint x="290" y="242.9999999999999" as="targetPoint" />
          </mxGeometry>
        </mxCell>
        <mxCell id="NaUxWzzthkALV-SUD3mu-4" value="Pipes" style="swimlane;whiteSpace=wrap;html=1;fillColor=#d5e8d4;strokeColor=#82b366;rounded=1;" parent="WIyWlLk6GJQsqaUBKTNV-1" vertex="1">
          <mxGeometry x="1130" width="540" height="240" as="geometry" />
        </mxCell>
        <mxCell id="NaUxWzzthkALV-SUD3mu-33" value="PipeGenerator" style="swimlane;fontStyle=2;align=center;verticalAlign=top;childLayout=stackLayout;horizontal=1;startSize=26;horizontalStack=0;resizeParent=1;resizeLast=0;collapsible=1;marginBottom=0;rounded=0;shadow=0;strokeWidth=1;" parent="NaUxWzzthkALV-SUD3mu-4" vertex="1">
          <mxGeometry x="20" y="40" width="220" height="164" as="geometry">
            <mxRectangle x="40" y="69" width="160" height="26" as="alternateBounds" />
          </mxGeometry>
        </mxCell>
        <mxCell id="NaUxWzzthkALV-SUD3mu-35" value="-_pipes : List&lt;GameObject&gt;" style="text;align=left;verticalAlign=top;spacingLeft=4;spacingRight=4;overflow=hidden;rotatable=0;points=[[0,0.5],[1,0.5]];portConstraint=eastwest;" parent="NaUxWzzthkALV-SUD3mu-33" vertex="1">
          <mxGeometry y="26" width="220" height="26" as="geometry" />
        </mxCell>
        <mxCell id="Qvfb32T_ngSN5uWjexYS-7" value="+ SetUpCoroutine : Coroutine" style="text;align=left;verticalAlign=top;spacingLeft=4;spacingRight=4;overflow=hidden;rotatable=0;points=[[0,0.5],[1,0.5]];portConstraint=eastwest;" parent="NaUxWzzthkALV-SUD3mu-33" vertex="1">
          <mxGeometry y="52" width="220" height="26" as="geometry" />
        </mxCell>
        <mxCell id="NaUxWzzthkALV-SUD3mu-36" value="" style="line;html=1;strokeWidth=1;align=left;verticalAlign=middle;spacingTop=-1;spacingLeft=3;spacingRight=3;rotatable=0;labelPosition=right;points=[];portConstraint=eastwest;" parent="NaUxWzzthkALV-SUD3mu-33" vertex="1">
          <mxGeometry y="78" width="220" height="8" as="geometry" />
        </mxCell>
        <mxCell id="NaUxWzzthkALV-SUD3mu-37" value="+ GeneratePipe() : void" style="text;align=left;verticalAlign=top;spacingLeft=4;spacingRight=4;overflow=hidden;rotatable=0;points=[[0,0.5],[1,0.5]];portConstraint=eastwest;" parent="NaUxWzzthkALV-SUD3mu-33" vertex="1">
          <mxGeometry y="86" width="220" height="26" as="geometry" />
        </mxCell>
        <mxCell id="NaUxWzzthkALV-SUD3mu-38" value="- SetUpGeneration() : IEnumerator" style="text;align=left;verticalAlign=top;spacingLeft=4;spacingRight=4;overflow=hidden;rotatable=0;points=[[0,0.5],[1,0.5]];portConstraint=eastwest;" parent="NaUxWzzthkALV-SUD3mu-33" vertex="1">
          <mxGeometry y="112" width="220" height="26" as="geometry" />
        </mxCell>
        <mxCell id="NaUxWzzthkALV-SUD3mu-39" value="+ StopGenerationSetUp() : void" style="text;align=left;verticalAlign=top;spacingLeft=4;spacingRight=4;overflow=hidden;rotatable=0;points=[[0,0.5],[1,0.5]];portConstraint=eastwest;" parent="NaUxWzzthkALV-SUD3mu-33" vertex="1">
          <mxGeometry y="138" width="220" height="26" as="geometry" />
        </mxCell>
        <mxCell id="Qvfb32T_ngSN5uWjexYS-0" value="Pipe" style="swimlane;fontStyle=2;align=center;verticalAlign=top;childLayout=stackLayout;horizontal=1;startSize=26;horizontalStack=0;resizeParent=1;resizeLast=0;collapsible=1;marginBottom=0;rounded=0;shadow=0;strokeWidth=1;" parent="NaUxWzzthkALV-SUD3mu-4" vertex="1">
          <mxGeometry x="300" y="40" width="220" height="112" as="geometry">
            <mxRectangle x="40" y="69" width="160" height="26" as="alternateBounds" />
          </mxGeometry>
        </mxCell>
        <mxCell id="Qvfb32T_ngSN5uWjexYS-1" value="- _speed : float" style="text;align=left;verticalAlign=top;spacingLeft=4;spacingRight=4;overflow=hidden;rotatable=0;points=[[0,0.5],[1,0.5]];portConstraint=eastwest;" parent="Qvfb32T_ngSN5uWjexYS-0" vertex="1">
          <mxGeometry y="26" width="220" height="26" as="geometry" />
        </mxCell>
        <mxCell id="Qvfb32T_ngSN5uWjexYS-3" value="" style="line;html=1;strokeWidth=1;align=left;verticalAlign=middle;spacingTop=-1;spacingLeft=3;spacingRight=3;rotatable=0;labelPosition=right;points=[];portConstraint=eastwest;" parent="Qvfb32T_ngSN5uWjexYS-0" vertex="1">
          <mxGeometry y="52" width="220" height="8" as="geometry" />
        </mxCell>
        <mxCell id="Qvfb32T_ngSN5uWjexYS-4" value="- OnTriggerEnter : void" style="text;align=left;verticalAlign=top;spacingLeft=4;spacingRight=4;overflow=hidden;rotatable=0;points=[[0,0.5],[1,0.5]];portConstraint=eastwest;" parent="Qvfb32T_ngSN5uWjexYS-0" vertex="1">
          <mxGeometry y="60" width="220" height="26" as="geometry" />
        </mxCell>
        <mxCell id="Qvfb32T_ngSN5uWjexYS-5" value="- FixedUpdate : void" style="text;align=left;verticalAlign=top;spacingLeft=4;spacingRight=4;overflow=hidden;rotatable=0;points=[[0,0.5],[1,0.5]];portConstraint=eastwest;" parent="Qvfb32T_ngSN5uWjexYS-0" vertex="1">
          <mxGeometry y="86" width="220" height="26" as="geometry" />
        </mxCell>
        <mxCell id="Qvfb32T_ngSN5uWjexYS-10" style="edgeStyle=orthogonalEdgeStyle;rounded=0;orthogonalLoop=1;jettySize=auto;html=1;exitX=1;exitY=0.5;exitDx=0;exitDy=0;endArrow=none;endFill=0;" parent="NaUxWzzthkALV-SUD3mu-4" source="NaUxWzzthkALV-SUD3mu-35" target="Qvfb32T_ngSN5uWjexYS-1" edge="1">
          <mxGeometry relative="1" as="geometry" />
        </mxCell>
        <mxCell id="Qvfb32T_ngSN5uWjexYS-9" style="edgeStyle=orthogonalEdgeStyle;rounded=0;orthogonalLoop=1;jettySize=auto;html=1;exitX=1;exitY=0.5;exitDx=0;exitDy=0;endArrow=none;endFill=0;" parent="WIyWlLk6GJQsqaUBKTNV-1" source="22lcPCfBFil6golWI1VR-24" target="NaUxWzzthkALV-SUD3mu-35" edge="1">
          <mxGeometry relative="1" as="geometry" />
        </mxCell>
        <mxCell id="Qvfb32T_ngSN5uWjexYS-28" value="UI" style="swimlane;whiteSpace=wrap;html=1;startSize=23;fillColor=#dae8fc;strokeColor=#6c8ebf;rounded=1;" parent="WIyWlLk6GJQsqaUBKTNV-1" vertex="1">
          <mxGeometry x="320" width="280" height="440" as="geometry" />
        </mxCell>
        <mxCell id="Qvfb32T_ngSN5uWjexYS-29" value="Score" style="swimlane;fontStyle=2;align=center;verticalAlign=top;childLayout=stackLayout;horizontal=1;startSize=26;horizontalStack=0;resizeParent=1;resizeLast=0;collapsible=1;marginBottom=0;rounded=0;shadow=0;strokeWidth=1;" parent="Qvfb32T_ngSN5uWjexYS-28" vertex="1">
          <mxGeometry x="30" y="260" width="220" height="140" as="geometry">
            <mxRectangle x="40" y="69" width="160" height="26" as="alternateBounds" />
          </mxGeometry>
        </mxCell>
        <mxCell id="Qvfb32T_ngSN5uWjexYS-30" value="-_score : int" style="text;align=left;verticalAlign=top;spacingLeft=4;spacingRight=4;overflow=hidden;rotatable=0;points=[[0,0.5],[1,0.5]];portConstraint=eastwest;" parent="Qvfb32T_ngSN5uWjexYS-29" vertex="1">
          <mxGeometry y="26" width="220" height="26" as="geometry" />
        </mxCell>
        <mxCell id="Qvfb32T_ngSN5uWjexYS-31" value="- _scoreUI : TMP_Text" style="text;align=left;verticalAlign=top;spacingLeft=4;spacingRight=4;overflow=hidden;rotatable=0;points=[[0,0.5],[1,0.5]];portConstraint=eastwest;" parent="Qvfb32T_ngSN5uWjexYS-29" vertex="1">
          <mxGeometry y="52" width="220" height="26" as="geometry" />
        </mxCell>
        <mxCell id="Qvfb32T_ngSN5uWjexYS-32" value="" style="line;html=1;strokeWidth=1;align=left;verticalAlign=middle;spacingTop=-1;spacingLeft=3;spacingRight=3;rotatable=0;labelPosition=right;points=[];portConstraint=eastwest;" parent="Qvfb32T_ngSN5uWjexYS-29" vertex="1">
          <mxGeometry y="78" width="220" height="8" as="geometry" />
        </mxCell>
        <mxCell id="Qvfb32T_ngSN5uWjexYS-33" value="+ AddScore() : void" style="text;align=left;verticalAlign=top;spacingLeft=4;spacingRight=4;overflow=hidden;rotatable=0;points=[[0,0.5],[1,0.5]];portConstraint=eastwest;" parent="Qvfb32T_ngSN5uWjexYS-29" vertex="1">
          <mxGeometry y="86" width="220" height="26" as="geometry" />
        </mxCell>
        <mxCell id="Qvfb32T_ngSN5uWjexYS-34" value="- UpdateUI() : void" style="text;align=left;verticalAlign=top;spacingLeft=4;spacingRight=4;overflow=hidden;rotatable=0;points=[[0,0.5],[1,0.5]];portConstraint=eastwest;" parent="Qvfb32T_ngSN5uWjexYS-29" vertex="1">
          <mxGeometry y="112" width="220" height="26" as="geometry" />
        </mxCell>
        <mxCell id="Qvfb32T_ngSN5uWjexYS-36" value="GameOver" style="swimlane;fontStyle=2;align=center;verticalAlign=top;childLayout=stackLayout;horizontal=1;startSize=26;horizontalStack=0;resizeParent=1;resizeLast=0;collapsible=1;marginBottom=0;rounded=0;shadow=0;strokeWidth=1;" parent="Qvfb32T_ngSN5uWjexYS-28" vertex="1">
          <mxGeometry x="30" y="40" width="220" height="80" as="geometry">
            <mxRectangle x="40" y="69" width="160" height="26" as="alternateBounds" />
          </mxGeometry>
        </mxCell>
        <mxCell id="Qvfb32T_ngSN5uWjexYS-52" value="+ Quit() : void" style="text;align=left;verticalAlign=top;spacingLeft=4;spacingRight=4;overflow=hidden;rotatable=0;points=[[0,0.5],[1,0.5]];portConstraint=eastwest;" parent="Qvfb32T_ngSN5uWjexYS-36" vertex="1">
          <mxGeometry y="26" width="220" height="26" as="geometry" />
        </mxCell>
        <mxCell id="Qvfb32T_ngSN5uWjexYS-51" value="+ Restart : void" style="text;align=left;verticalAlign=top;spacingLeft=4;spacingRight=4;overflow=hidden;rotatable=0;points=[[0,0.5],[1,0.5]];portConstraint=eastwest;" parent="Qvfb32T_ngSN5uWjexYS-36" vertex="1">
          <mxGeometry y="52" width="220" height="26" as="geometry" />
        </mxCell>
        <mxCell id="22lcPCfBFil6golWI1VR-29" value="Pause" style="swimlane;fontStyle=2;align=center;verticalAlign=top;childLayout=stackLayout;horizontal=1;startSize=26;horizontalStack=0;resizeParent=1;resizeLast=0;collapsible=1;marginBottom=0;rounded=0;shadow=0;strokeWidth=1;" parent="Qvfb32T_ngSN5uWjexYS-28" vertex="1">
          <mxGeometry x="50" y="140" width="200" height="104" as="geometry">
            <mxRectangle x="40" y="69" width="160" height="26" as="alternateBounds" />
          </mxGeometry>
        </mxCell>
        <mxCell id="Qvfb32T_ngSN5uWjexYS-53" value="+ Quit() : void" style="text;align=left;verticalAlign=top;spacingLeft=4;spacingRight=4;overflow=hidden;rotatable=0;points=[[0,0.5],[1,0.5]];portConstraint=eastwest;" parent="22lcPCfBFil6golWI1VR-29" vertex="1">
          <mxGeometry y="26" width="200" height="26" as="geometry" />
        </mxCell>
        <mxCell id="22lcPCfBFil6golWI1VR-33" value="+ Resume() : void" style="text;align=left;verticalAlign=top;spacingLeft=4;spacingRight=4;overflow=hidden;rotatable=0;points=[[0,0.5],[1,0.5]];portConstraint=eastwest;" parent="22lcPCfBFil6golWI1VR-29" vertex="1">
          <mxGeometry y="52" width="200" height="26" as="geometry" />
        </mxCell>
        <mxCell id="22lcPCfBFil6golWI1VR-34" value="+ Restart() : void" style="text;align=left;verticalAlign=top;spacingLeft=4;spacingRight=4;overflow=hidden;rotatable=0;points=[[0,0.5],[1,0.5]];portConstraint=eastwest;" parent="22lcPCfBFil6golWI1VR-29" vertex="1">
          <mxGeometry y="78" width="200" height="26" as="geometry" />
        </mxCell>
        <mxCell id="Qvfb32T_ngSN5uWjexYS-44" style="edgeStyle=orthogonalEdgeStyle;rounded=0;orthogonalLoop=1;jettySize=auto;html=1;exitX=0;exitY=0.5;exitDx=0;exitDy=0;entryX=1;entryY=0.5;entryDx=0;entryDy=0;endArrow=none;endFill=0;" parent="WIyWlLk6GJQsqaUBKTNV-1" source="22lcPCfBFil6golWI1VR-24" edge="1">
          <mxGeometry relative="1" as="geometry">
            <mxPoint x="570" y="79" as="targetPoint" />
          </mxGeometry>
        </mxCell>
        <mxCell id="Qvfb32T_ngSN5uWjexYS-45" style="edgeStyle=orthogonalEdgeStyle;rounded=0;orthogonalLoop=1;jettySize=auto;html=1;exitX=1;exitY=0.5;exitDx=0;exitDy=0;entryX=-0.01;entryY=-0.081;entryDx=0;entryDy=0;entryPerimeter=0;endArrow=none;endFill=0;" parent="WIyWlLk6GJQsqaUBKTNV-1" source="22lcPCfBFil6golWI1VR-33" target="22lcPCfBFil6golWI1VR-26" edge="1">
          <mxGeometry relative="1" as="geometry" />
        </mxCell>
        <mxCell id="Qvfb32T_ngSN5uWjexYS-56" style="edgeStyle=orthogonalEdgeStyle;rounded=0;orthogonalLoop=1;jettySize=auto;html=1;exitX=0;exitY=0.5;exitDx=0;exitDy=0;endArrow=none;endFill=0;" parent="WIyWlLk6GJQsqaUBKTNV-1" source="22lcPCfBFil6golWI1VR-8" target="Qvfb32T_ngSN5uWjexYS-30" edge="1">
          <mxGeometry relative="1" as="geometry">
            <Array as="points">
              <mxPoint x="620" y="279" />
              <mxPoint x="620" y="299" />
            </Array>
          </mxGeometry>
        </mxCell>
        <mxCell id="Qvfb32T_ngSN5uWjexYS-57" style="edgeStyle=orthogonalEdgeStyle;rounded=0;orthogonalLoop=1;jettySize=auto;html=1;exitX=0;exitY=0;exitDx=130;exitDy=10;exitPerimeter=0;fillColor=#e3c800;strokeColor=#B09500;" parent="WIyWlLk6GJQsqaUBKTNV-1" source="Qvfb32T_ngSN5uWjexYS-58" target="Qvfb32T_ngSN5uWjexYS-5" edge="1">
          <mxGeometry relative="1" as="geometry">
            <mxPoint x="1560" y="160" as="targetPoint" />
            <Array as="points">
              <mxPoint x="1540" y="203" />
              <mxPoint x="1660" y="203" />
              <mxPoint x="1660" y="139" />
            </Array>
          </mxGeometry>
        </mxCell>
        <mxCell id="Qvfb32T_ngSN5uWjexYS-58" value="Fais avancer le tuyau de droite à gauche" style="shape=note;whiteSpace=wrap;html=1;backgroundOutline=1;fontColor=#000000;darkOpacity=0.05;fillColor=#FFF9B2;strokeColor=none;fillStyle=solid;direction=west;gradientDirection=north;gradientColor=#FFF2A1;shadow=1;size=18;pointerEvents=1;" parent="WIyWlLk6GJQsqaUBKTNV-1" vertex="1">
          <mxGeometry x="1530" y="255" width="140" height="160" as="geometry" />
        </mxCell>
        <mxCell id="Qvfb32T_ngSN5uWjexYS-60" value="Détruit le tuyau lorsqu&#39;il se retrouve en dehors de l&#39;écran et appel le pipe generator pour en créer un autre" style="shape=note;whiteSpace=wrap;html=1;backgroundOutline=1;fontColor=#000000;darkOpacity=0.05;fillColor=#FFF9B2;strokeColor=none;fillStyle=solid;direction=west;gradientDirection=north;gradientColor=#FFF2A1;shadow=1;size=18;pointerEvents=1;" parent="WIyWlLk6GJQsqaUBKTNV-1" vertex="1">
          <mxGeometry x="1380" y="255" width="140" height="160" as="geometry" />
        </mxCell>
        <mxCell id="Qvfb32T_ngSN5uWjexYS-62" style="edgeStyle=orthogonalEdgeStyle;rounded=0;orthogonalLoop=1;jettySize=auto;html=1;exitX=0;exitY=0.5;exitDx=0;exitDy=0;entryX=0.858;entryY=0.999;entryDx=0;entryDy=0;entryPerimeter=0;startArrow=classic;startFill=1;endArrow=none;endFill=0;fillColor=#e3c800;strokeColor=#B09500;" parent="WIyWlLk6GJQsqaUBKTNV-1" source="Qvfb32T_ngSN5uWjexYS-4" target="Qvfb32T_ngSN5uWjexYS-60" edge="1">
          <mxGeometry relative="1" as="geometry" />
        </mxCell>
        <mxCell id="Qvfb32T_ngSN5uWjexYS-68" style="edgeStyle=orthogonalEdgeStyle;rounded=0;orthogonalLoop=1;jettySize=auto;html=1;exitX=1;exitY=0.5;exitDx=0;exitDy=0;entryX=0.447;entryY=1.188;entryDx=0;entryDy=0;entryPerimeter=0;endArrow=none;endFill=0;" parent="WIyWlLk6GJQsqaUBKTNV-1" source="22lcPCfBFil6golWI1VR-14" target="NaUxWzzthkALV-SUD3mu-39" edge="1">
          <mxGeometry relative="1" as="geometry">
            <Array as="points">
              <mxPoint x="1248" y="470" />
            </Array>
          </mxGeometry>
        </mxCell>
        <mxCell id="Qvfb32T_ngSN5uWjexYS-73" style="edgeStyle=orthogonalEdgeStyle;rounded=0;orthogonalLoop=1;jettySize=auto;html=1;exitX=0;exitY=0.5;exitDx=0;exitDy=0;entryX=1;entryY=0.5;entryDx=0;entryDy=0;endArrow=none;endFill=0;" parent="WIyWlLk6GJQsqaUBKTNV-1" source="Qvfb32T_ngSN5uWjexYS-66" target="Qvfb32T_ngSN5uWjexYS-34" edge="1">
          <mxGeometry relative="1" as="geometry">
            <Array as="points">
              <mxPoint x="620" y="489" />
              <mxPoint x="620" y="385" />
            </Array>
          </mxGeometry>
        </mxCell>
        <mxCell id="Qvfb32T_ngSN5uWjexYS-77" style="edgeStyle=orthogonalEdgeStyle;rounded=0;orthogonalLoop=1;jettySize=auto;html=1;exitX=0;exitY=1;exitDx=0;exitDy=0;exitPerimeter=0;entryX=1;entryY=0.5;entryDx=0;entryDy=0;fillColor=#e3c800;strokeColor=#B09500;" parent="WIyWlLk6GJQsqaUBKTNV-1" source="Qvfb32T_ngSN5uWjexYS-74" target="Qvfb32T_ngSN5uWjexYS-66" edge="1">
          <mxGeometry relative="1" as="geometry" />
        </mxCell>
        <mxCell id="Qvfb32T_ngSN5uWjexYS-74" value="Détecte si le joueur passe entre 2 tuyaux et marque un point ou si il touche un tuyau et perd" style="shape=note;whiteSpace=wrap;html=1;backgroundOutline=1;fontColor=#000000;darkOpacity=0.05;fillColor=#FFF9B2;strokeColor=none;fillStyle=solid;direction=west;gradientDirection=north;gradientColor=#FFF2A1;shadow=1;size=18;pointerEvents=1;" parent="WIyWlLk6GJQsqaUBKTNV-1" vertex="1">
          <mxGeometry x="640" y="557" width="140" height="160" as="geometry" />
        </mxCell>
      </root>
    </mxGraphModel>
  </diagram>
</mxfile>
